<svg width="539" height="339" viewBox="0 0 539 339" fill="none" xmlns="http://www.w3.org/2000/svg">
<path d="M0.5 7.99999C0.5 3.85786 3.85786 0.5 8 0.5H531C535.142 0.5 538.5 3.85786 538.5 8V338.5H0.5V7.99999Z" fill="#131A21" stroke="#263039"/>
<path d="M0.5 8C0.5 3.85786 3.85786 0.5 8 0.5H531C535.142 0.5 538.5 3.85786 538.5 8V15.5H0.5V8Z" fill="#2D3943" stroke="#263039"/>
<path d="M35 68H505V339H35V68Z" fill="#202932"/>
<path d="M84 120.5L87.09 126.76L94 127.77L89 132.64L90.18 139.52L84 136.27L77.82 139.52L79 132.64L74 127.77L80.91 126.76L84 120.5Z" fill="#55E5C5"/>
<path d="M113.528 133.088C113.608 133.088 113.672 133.12 113.72 133.184C113.784 133.232 113.816 133.296 113.816 133.376V135.296C113.816 135.376 113.784 135.448 113.72 135.512C113.672 135.56 113.608 135.584 113.528 135.584H112.52C112.44 135.584 112.4 135.624 112.4 135.704V139.712C112.4 139.792 112.368 139.864 112.304 139.928C112.256 139.976 112.192 140 112.112 140H109.904C109.824 140 109.752 139.976 109.688 139.928C109.64 139.864 109.616 139.792 109.616 139.712V135.704C109.616 135.624 109.576 135.584 109.496 135.584H102.2C102.12 135.584 102.048 135.56 101.984 135.512C101.936 135.448 101.912 135.376 101.912 135.296V133.76C101.912 133.664 101.936 133.544 101.984 133.4L106.52 123.416C106.584 123.272 106.696 123.2 106.856 123.2H109.208C109.32 123.2 109.392 123.232 109.424 123.296C109.472 123.344 109.472 123.424 109.424 123.536L105.152 132.944C105.136 132.976 105.136 133.008 105.152 133.04C105.168 133.072 105.192 133.088 105.224 133.088H109.496C109.576 133.088 109.616 133.048 109.616 132.968V129.704C109.616 129.624 109.64 129.56 109.688 129.512C109.752 129.448 109.824 129.416 109.904 129.416H112.112C112.192 129.416 112.256 129.448 112.304 129.512C112.368 129.56 112.4 129.624 112.4 129.704V132.968C112.4 133.048 112.44 133.088 112.52 133.088H113.528ZM118.231 140.048C117.735 140.048 117.327 139.888 117.007 139.568C116.687 139.248 116.527 138.84 116.527 138.344C116.527 137.848 116.687 137.44 117.007 137.12C117.327 136.8 117.735 136.64 118.231 136.64C118.727 136.64 119.127 136.8 119.431 137.12C119.751 137.44 119.911 137.848 119.911 138.344C119.911 138.84 119.751 139.248 119.431 139.568C119.111 139.888 118.711 140.048 118.231 140.048ZM132.762 132.728C133.114 133.432 133.29 134.24 133.29 135.152C133.29 136.112 133.082 136.984 132.666 137.768C132.25 138.52 131.642 139.112 130.842 139.544C130.042 139.976 129.098 140.192 128.01 140.192C126.938 140.192 125.986 139.984 125.154 139.568C124.322 139.136 123.698 138.512 123.282 137.696C122.866 136.944 122.658 136.088 122.658 135.128C122.658 134.264 122.842 133.448 123.21 132.68C123.53 132.024 123.986 131.528 124.578 131.192C124.658 131.144 124.666 131.088 124.602 131.024C124.202 130.736 123.842 130.336 123.522 129.824C123.106 129.152 122.898 128.408 122.898 127.592C122.898 126.584 123.194 125.68 123.786 124.88C124.218 124.256 124.802 123.776 125.538 123.44C126.274 123.088 127.098 122.912 128.01 122.912C128.954 122.912 129.778 123.088 130.482 123.44C131.202 123.776 131.778 124.256 132.21 124.88C132.77 125.696 133.05 126.6 133.05 127.592C133.05 128.472 132.834 129.24 132.402 129.896C132.098 130.344 131.746 130.712 131.346 131C131.282 131.064 131.282 131.12 131.346 131.168C131.954 131.52 132.426 132.04 132.762 132.728ZM125.946 126.536C125.754 126.952 125.658 127.32 125.658 127.64C125.658 128.184 125.794 128.672 126.066 129.104C126.45 129.76 127.09 130.088 127.986 130.088C128.85 130.088 129.506 129.752 129.954 129.08C130.194 128.728 130.314 128.24 130.314 127.616C130.314 127.264 130.226 126.896 130.05 126.512C129.842 126.144 129.562 125.856 129.21 125.648C128.858 125.424 128.442 125.312 127.962 125.312C127.514 125.312 127.114 125.424 126.762 125.648C126.41 125.856 126.138 126.152 125.946 126.536ZM129.978 136.808C130.314 136.344 130.482 135.712 130.482 134.912C130.482 134.176 130.354 133.6 130.098 133.184C129.698 132.448 128.994 132.08 127.986 132.08C127.042 132.08 126.354 132.432 125.922 133.136C125.65 133.568 125.514 134.168 125.514 134.936C125.514 135.672 125.658 136.272 125.946 136.736C126.378 137.44 127.066 137.792 128.01 137.792C128.906 137.792 129.562 137.464 129.978 136.808ZM135.286 140C135.19 140 135.118 139.976 135.07 139.928C135.022 139.864 135.014 139.776 135.046 139.664L140.926 123.44C140.974 123.28 141.078 123.2 141.238 123.2H143.422C143.518 123.2 143.59 123.232 143.638 123.296C143.686 123.344 143.694 123.424 143.662 123.536L137.782 139.76C137.734 139.92 137.63 140 137.47 140H135.286ZM156.605 132.464C156.813 133.184 156.917 133.928 156.917 134.696C156.917 135.448 156.813 136.16 156.605 136.832C156.269 137.856 155.653 138.672 154.757 139.28C153.861 139.872 152.813 140.168 151.613 140.168C150.429 140.168 149.397 139.88 148.517 139.304C147.637 138.712 147.021 137.92 146.669 136.928C146.541 136.576 146.437 136.176 146.357 135.728V135.68C146.357 135.504 146.453 135.416 146.645 135.416H148.925C149.085 135.416 149.189 135.504 149.237 135.68C149.253 135.776 149.293 135.92 149.357 136.112C149.533 136.64 149.813 137.048 150.197 137.336C150.581 137.624 151.045 137.768 151.589 137.768C152.149 137.768 152.629 137.616 153.029 137.312C153.429 136.992 153.709 136.56 153.869 136.016C154.013 135.632 154.085 135.192 154.085 134.696C154.085 134.232 154.021 133.776 153.893 133.328C153.781 132.8 153.525 132.4 153.125 132.128C152.725 131.84 152.237 131.696 151.661 131.696C151.117 131.696 150.621 131.824 150.173 132.08C149.741 132.32 149.461 132.64 149.333 133.04C149.269 133.2 149.157 133.28 148.997 133.28H146.669C146.589 133.28 146.517 133.256 146.453 133.208C146.405 133.144 146.381 133.072 146.381 132.992V123.488C146.381 123.408 146.405 123.344 146.453 123.296C146.517 123.232 146.589 123.2 146.669 123.2H156.005C156.085 123.2 156.149 123.232 156.197 123.296C156.261 123.344 156.293 123.408 156.293 123.488V125.312C156.293 125.392 156.261 125.464 156.197 125.528C156.149 125.576 156.085 125.6 156.005 125.6H149.285C149.205 125.6 149.165 125.64 149.165 125.72L149.141 130.04C149.141 130.104 149.157 130.144 149.189 130.16C149.221 130.16 149.253 130.144 149.285 130.112C150.037 129.552 150.941 129.272 151.997 129.272C153.117 129.272 154.085 129.56 154.901 130.136C155.733 130.696 156.301 131.472 156.605 132.464Z" fill="white"/>
<path d="M75.65 108.135C74.92 108.135 74.275 107.985 73.715 107.685C73.155 107.385 72.72 106.965 72.41 106.425C72.1 105.875 71.945 105.245 71.945 104.535V100.965C71.945 100.255 72.1 99.63 72.41 99.09C72.72 98.55 73.155 98.13 73.715 97.83C74.275 97.53 74.92 97.38 75.65 97.38C76.39 97.38 77.04 97.53 77.6 97.83C78.16 98.13 78.595 98.55 78.905 99.09C79.215 99.63 79.37 100.255 79.37 100.965V104.535C79.37 105.245 79.215 105.875 78.905 106.425C78.595 106.965 78.16 107.385 77.6 107.685C77.04 107.985 76.39 108.135 75.65 108.135ZM75.65 106.89C76.33 106.89 76.88 106.68 77.3 106.26C77.72 105.84 77.93 105.285 77.93 104.595V100.95C77.93 100.25 77.72 99.69 77.3 99.27C76.88 98.84 76.33 98.625 75.65 98.625C74.97 98.625 74.42 98.84 74 99.27C73.59 99.69 73.385 100.25 73.385 100.95V104.595C73.385 105.285 73.59 105.84 74 106.26C74.42 106.68 74.97 106.89 75.65 106.89ZM83.3911 108C83.3011 108 83.2411 107.96 83.2111 107.88L80.7661 100.53L80.7511 100.47C80.7511 100.4 80.7961 100.365 80.8861 100.365H82.1461C82.2361 100.365 82.2961 100.405 82.3261 100.485L83.9761 105.915C83.9861 105.935 84.0011 105.945 84.0211 105.945C84.0411 105.945 84.0561 105.935 84.0661 105.915L85.7011 100.485C85.7311 100.405 85.7911 100.365 85.8811 100.365L87.1411 100.38C87.2511 100.38 87.2911 100.435 87.2611 100.545L84.8311 107.88C84.8011 107.96 84.7411 108 84.6511 108H83.3911ZM94.5923 103.23C94.6323 103.64 94.6473 104.1 94.6373 104.61C94.6373 104.71 94.5873 104.76 94.4873 104.76H89.7023C89.6623 104.76 89.6423 104.78 89.6423 104.82C89.6423 105.16 89.6723 105.42 89.7323 105.6C89.8423 106 90.0623 106.315 90.3923 106.545C90.7323 106.765 91.1573 106.875 91.6673 106.875C92.4073 106.875 92.9773 106.57 93.3773 105.96C93.4273 105.86 93.4923 105.845 93.5723 105.915L94.4273 106.485C94.4973 106.545 94.5123 106.61 94.4723 106.68C94.1923 107.13 93.7923 107.485 93.2723 107.745C92.7623 108.005 92.1823 108.135 91.5323 108.135C90.8023 108.135 90.1873 107.975 89.6873 107.655C89.1873 107.335 88.8123 106.88 88.5623 106.29C88.3223 105.7 88.2023 104.985 88.2023 104.145C88.2023 103.415 88.2573 102.86 88.3673 102.48C88.5473 101.79 88.9073 101.245 89.4473 100.845C89.9873 100.445 90.6423 100.245 91.4123 100.245C92.4223 100.245 93.1773 100.5 93.6773 101.01C94.1773 101.51 94.4823 102.25 94.5923 103.23ZM91.4123 101.49C90.9823 101.49 90.6273 101.6 90.3473 101.82C90.0673 102.03 89.8773 102.315 89.7773 102.675C89.7073 102.895 89.6623 103.175 89.6423 103.515C89.6423 103.555 89.6623 103.575 89.7023 103.575H93.1373C93.1773 103.575 93.1973 103.555 93.1973 103.515C93.1773 103.185 93.1473 102.94 93.1073 102.78C93.0073 102.39 92.8073 102.08 92.5073 101.85C92.2173 101.61 91.8523 101.49 91.4123 101.49ZM99.7993 100.29C100.119 100.29 100.409 100.355 100.669 100.485C100.739 100.515 100.764 100.575 100.744 100.665L100.504 101.79C100.494 101.88 100.434 101.91 100.324 101.88C100.154 101.81 99.9543 101.775 99.7243 101.775L99.5143 101.79C99.0443 101.81 98.6543 101.975 98.3443 102.285C98.0443 102.585 97.8943 102.98 97.8943 103.47V107.85C97.8943 107.95 97.8443 108 97.7443 108H96.6043C96.5043 108 96.4543 107.95 96.4543 107.85V100.515C96.4543 100.415 96.5043 100.365 96.6043 100.365H97.7443C97.8443 100.365 97.8943 100.415 97.8943 100.515V101.31C97.8943 101.34 97.8993 101.36 97.9093 101.37C97.9293 101.37 97.9443 101.36 97.9543 101.34C98.4043 100.64 99.0193 100.29 99.7993 100.29ZM104.752 100.245C105.362 100.245 105.892 100.355 106.342 100.575C106.802 100.785 107.152 101.085 107.392 101.475C107.642 101.855 107.767 102.29 107.767 102.78V107.85C107.767 107.95 107.717 108 107.617 108H106.477C106.377 108 106.327 107.95 106.327 107.85V107.31C106.327 107.26 106.302 107.25 106.252 107.28C105.992 107.55 105.672 107.76 105.292 107.91C104.922 108.05 104.507 108.12 104.047 108.12C103.307 108.12 102.692 107.935 102.202 107.565C101.722 107.185 101.482 106.615 101.482 105.855C101.482 105.075 101.752 104.465 102.292 104.025C102.842 103.575 103.607 103.35 104.587 103.35H106.267C106.307 103.35 106.327 103.33 106.327 103.29V102.885C106.327 102.445 106.197 102.105 105.937 101.865C105.687 101.615 105.302 101.49 104.782 101.49C104.362 101.49 104.017 101.575 103.747 101.745C103.487 101.905 103.327 102.125 103.267 102.405C103.237 102.505 103.177 102.55 103.087 102.54L101.872 102.375C101.772 102.355 101.727 102.315 101.737 102.255C101.817 101.665 102.132 101.185 102.682 100.815C103.232 100.435 103.922 100.245 104.752 100.245ZM104.362 106.905C104.892 106.905 105.352 106.765 105.742 106.485C106.132 106.205 106.327 105.85 106.327 105.42V104.535C106.327 104.495 106.307 104.475 106.267 104.475H104.857C104.267 104.475 103.797 104.59 103.447 104.82C103.097 105.05 102.922 105.37 102.922 105.78C102.922 106.15 103.052 106.43 103.312 106.62C103.582 106.81 103.932 106.905 104.362 106.905ZM109.861 108C109.761 108 109.711 107.95 109.711 107.85V97.65C109.711 97.55 109.761 97.5 109.861 97.5H111.001C111.101 97.5 111.151 97.55 111.151 97.65V107.85C111.151 107.95 111.101 108 111.001 108H109.861ZM113.391 108C113.291 108 113.241 107.95 113.241 107.85V97.65C113.241 97.55 113.291 97.5 113.391 97.5H114.531C114.631 97.5 114.681 97.55 114.681 97.65V107.85C114.681 107.95 114.631 108 114.531 108H113.391ZM122.46 108.09C121.86 108.09 121.33 108 120.87 107.82C120.42 107.64 120.07 107.395 119.82 107.085C119.57 106.765 119.445 106.415 119.445 106.035V105.87C119.445 105.77 119.495 105.72 119.595 105.72H120.675C120.775 105.72 120.825 105.77 120.825 105.87V105.945C120.825 106.225 120.975 106.47 121.275 106.68C121.585 106.89 121.975 106.995 122.445 106.995C122.895 106.995 123.26 106.9 123.54 106.71C123.82 106.51 123.96 106.26 123.96 105.96C123.96 105.67 123.83 105.455 123.57 105.315C123.31 105.165 122.89 105.01 122.31 104.85C121.74 104.69 121.26 104.53 120.87 104.37C120.49 104.2 120.165 103.965 119.895 103.665C119.635 103.355 119.505 102.96 119.505 102.48C119.505 101.81 119.765 101.28 120.285 100.89C120.815 100.49 121.515 100.29 122.385 100.29C122.965 100.29 123.475 100.385 123.915 100.575C124.365 100.755 124.71 101.01 124.95 101.34C125.19 101.67 125.31 102.04 125.31 102.45V102.495C125.31 102.595 125.26 102.645 125.16 102.645H124.11C124.01 102.645 123.96 102.595 123.96 102.495V102.45C123.96 102.16 123.815 101.92 123.525 101.73C123.245 101.53 122.86 101.43 122.37 101.43C121.93 101.43 121.57 101.515 121.29 101.685C121.02 101.855 120.885 102.085 120.885 102.375C120.885 102.665 121.015 102.885 121.275 103.035C121.545 103.185 121.975 103.345 122.565 103.515C123.145 103.675 123.625 103.835 124.005 103.995C124.395 104.145 124.725 104.375 124.995 104.685C125.265 104.985 125.4 105.38 125.4 105.87C125.4 106.55 125.13 107.09 124.59 107.49C124.06 107.89 123.35 108.09 122.46 108.09ZM130.144 108.12C129.384 108.12 128.734 107.93 128.194 107.55C127.654 107.16 127.284 106.635 127.084 105.975C126.934 105.515 126.859 104.91 126.859 104.16C126.859 103.47 126.934 102.865 127.084 102.345C127.284 101.705 127.654 101.195 128.194 100.815C128.744 100.435 129.394 100.245 130.144 100.245C130.894 100.245 131.549 100.435 132.109 100.815C132.669 101.195 133.034 101.675 133.204 102.255C133.264 102.415 133.304 102.58 133.324 102.75C133.324 102.83 133.279 102.88 133.189 102.9L132.064 103.065H132.034C131.964 103.065 131.914 103.02 131.884 102.93L131.839 102.69C131.759 102.35 131.564 102.065 131.254 101.835C130.944 101.605 130.569 101.49 130.129 101.49C129.699 101.49 129.334 101.605 129.034 101.835C128.734 102.065 128.539 102.37 128.449 102.75C128.359 103.11 128.314 103.585 128.314 104.175C128.314 104.755 128.359 105.225 128.449 105.585C128.549 105.985 128.744 106.3 129.034 106.53C129.334 106.76 129.699 106.875 130.129 106.875C130.569 106.875 130.944 106.76 131.254 106.53C131.574 106.3 131.774 106 131.854 105.63C131.864 105.62 131.864 105.61 131.854 105.6C131.854 105.58 131.859 105.565 131.869 105.555V105.495C131.899 105.415 131.954 105.385 132.034 105.405L133.159 105.585C133.239 105.605 133.279 105.645 133.279 105.705V105.765C133.279 105.855 133.254 105.965 133.204 106.095C133.034 106.705 132.669 107.195 132.109 107.565C131.549 107.935 130.894 108.12 130.144 108.12ZM138.041 108.12C137.301 108.12 136.656 107.935 136.106 107.565C135.556 107.185 135.171 106.66 134.951 105.99C134.771 105.45 134.681 104.84 134.681 104.16C134.681 103.45 134.766 102.85 134.936 102.36C135.156 101.7 135.541 101.185 136.091 100.815C136.641 100.435 137.296 100.245 138.056 100.245C138.776 100.245 139.401 100.435 139.931 100.815C140.471 101.185 140.856 101.695 141.086 102.345C141.266 102.855 141.356 103.455 141.356 104.145C141.356 104.845 141.266 105.46 141.086 105.99C140.866 106.66 140.486 107.185 139.946 107.565C139.406 107.935 138.771 108.12 138.041 108.12ZM138.041 106.875C138.441 106.875 138.791 106.765 139.091 106.545C139.391 106.315 139.606 105.995 139.736 105.585C139.846 105.205 139.901 104.735 139.901 104.175C139.901 103.615 139.851 103.15 139.751 102.78C139.621 102.37 139.406 102.055 139.106 101.835C138.806 101.605 138.441 101.49 138.011 101.49C137.601 101.49 137.246 101.605 136.946 101.835C136.646 102.055 136.431 102.37 136.301 102.78C136.191 103.13 136.136 103.595 136.136 104.175C136.136 104.755 136.191 105.225 136.301 105.585C136.421 105.995 136.631 106.315 136.931 106.545C137.241 106.765 137.611 106.875 138.041 106.875ZM146.586 100.29C146.906 100.29 147.196 100.355 147.456 100.485C147.526 100.515 147.551 100.575 147.531 100.665L147.291 101.79C147.281 101.88 147.221 101.91 147.111 101.88C146.941 101.81 146.741 101.775 146.511 101.775L146.301 101.79C145.831 101.81 145.441 101.975 145.131 102.285C144.831 102.585 144.681 102.98 144.681 103.47V107.85C144.681 107.95 144.631 108 144.531 108H143.391C143.291 108 143.241 107.95 143.241 107.85V100.515C143.241 100.415 143.291 100.365 143.391 100.365H144.531C144.631 100.365 144.681 100.415 144.681 100.515V101.31C144.681 101.34 144.686 101.36 144.696 101.37C144.716 101.37 144.731 101.36 144.741 101.34C145.191 100.64 145.806 100.29 146.586 100.29ZM154.871 103.23C154.911 103.64 154.926 104.1 154.916 104.61C154.916 104.71 154.866 104.76 154.766 104.76H149.981C149.941 104.76 149.921 104.78 149.921 104.82C149.921 105.16 149.951 105.42 150.011 105.6C150.121 106 150.341 106.315 150.671 106.545C151.011 106.765 151.436 106.875 151.946 106.875C152.686 106.875 153.256 106.57 153.656 105.96C153.706 105.86 153.771 105.845 153.851 105.915L154.706 106.485C154.776 106.545 154.791 106.61 154.751 106.68C154.471 107.13 154.071 107.485 153.551 107.745C153.041 108.005 152.461 108.135 151.811 108.135C151.081 108.135 150.466 107.975 149.966 107.655C149.466 107.335 149.091 106.88 148.841 106.29C148.601 105.7 148.481 104.985 148.481 104.145C148.481 103.415 148.536 102.86 148.646 102.48C148.826 101.79 149.186 101.245 149.726 100.845C150.266 100.445 150.921 100.245 151.691 100.245C152.701 100.245 153.456 100.5 153.956 101.01C154.456 101.51 154.761 102.25 154.871 103.23ZM151.691 101.49C151.261 101.49 150.906 101.6 150.626 101.82C150.346 102.03 150.156 102.315 150.056 102.675C149.986 102.895 149.941 103.175 149.921 103.515C149.921 103.555 149.941 103.575 149.981 103.575H153.416C153.456 103.575 153.476 103.555 153.476 103.515C153.456 103.185 153.426 102.94 153.386 102.78C153.286 102.39 153.086 102.08 152.786 101.85C152.496 101.61 152.131 101.49 151.691 101.49Z" fill="white"/>
<path d="M228 126.667L230.575 131.883L236.334 132.725L232.167 136.783L233.15 142.517L228 139.808L222.85 142.517L223.834 136.783L219.667 132.725L225.425 131.883L228 126.667Z" fill="#55E5C5"/>
<path d="M251.064 137.116C251.171 137.116 251.224 137.169 251.224 137.276V138.332C251.224 138.439 251.171 138.492 251.064 138.492H250.376C250.333 138.492 250.312 138.513 250.312 138.556V141.34C250.312 141.447 250.259 141.5 250.152 141.5H248.936C248.829 141.5 248.776 141.447 248.776 141.34V138.556C248.776 138.513 248.755 138.492 248.712 138.492H243.848C243.741 138.492 243.688 138.439 243.688 138.332V137.468C243.688 137.415 243.704 137.351 243.736 137.276L246.888 130.412C246.92 130.337 246.979 130.3 247.064 130.3H248.344C248.397 130.3 248.435 130.321 248.456 130.364C248.488 130.396 248.493 130.439 248.472 130.492L245.464 137.036C245.453 137.057 245.453 137.079 245.464 137.1C245.475 137.111 245.491 137.116 245.512 137.116H248.712C248.755 137.116 248.776 137.095 248.776 137.052V134.668C248.776 134.561 248.829 134.508 248.936 134.508H250.152C250.259 134.508 250.312 134.561 250.312 134.668V137.052C250.312 137.095 250.333 137.116 250.376 137.116H251.064ZM252.717 141.5C252.6 141.5 252.557 141.441 252.589 141.324L256.349 130.428C256.381 130.343 256.445 130.3 256.541 130.3H257.741C257.858 130.3 257.901 130.359 257.869 130.476L254.109 141.372C254.077 141.457 254.013 141.5 253.917 141.5H252.717ZM266.426 136.54C266.543 137.009 266.602 137.495 266.602 137.996C266.602 138.497 266.538 138.961 266.41 139.388C266.207 140.071 265.818 140.615 265.242 141.02C264.676 141.415 263.999 141.612 263.21 141.612C262.431 141.612 261.764 141.42 261.21 141.036C260.655 140.652 260.266 140.129 260.042 139.468C259.935 139.169 259.876 138.908 259.866 138.684V138.652C259.866 138.567 259.914 138.524 260.01 138.524H261.274C261.37 138.524 261.423 138.572 261.434 138.668C261.444 138.743 261.471 138.855 261.514 139.004C261.631 139.399 261.834 139.713 262.122 139.948C262.42 140.172 262.778 140.284 263.194 140.284C263.631 140.284 263.999 140.167 264.298 139.932C264.607 139.687 264.815 139.351 264.922 138.924C264.996 138.7 265.034 138.391 265.034 137.996C265.034 137.644 265.002 137.319 264.938 137.02C264.863 136.615 264.671 136.305 264.362 136.092C264.063 135.868 263.69 135.756 263.242 135.756C262.826 135.756 262.452 135.852 262.122 136.044C261.791 136.225 261.578 136.471 261.482 136.78C261.45 136.876 261.391 136.924 261.306 136.924H260.026C259.919 136.924 259.866 136.871 259.866 136.764V130.46C259.866 130.353 259.919 130.3 260.026 130.3H266.01C266.116 130.3 266.17 130.353 266.17 130.46V131.468C266.17 131.575 266.116 131.628 266.01 131.628H261.466C261.423 131.628 261.402 131.649 261.402 131.692L261.386 135.036C261.386 135.1 261.412 135.116 261.466 135.084C261.722 134.86 262.015 134.695 262.346 134.588C262.687 134.471 263.044 134.412 263.418 134.412C264.164 134.412 264.804 134.599 265.338 134.972C265.882 135.345 266.244 135.868 266.426 136.54Z" fill="white"/>
<path d="M222.494 117.112C221.813 117.112 221.211 116.981 220.688 116.72C220.175 116.449 219.773 116.071 219.484 115.586C219.195 115.091 219.05 114.527 219.05 113.892V107.34C219.05 107.247 219.097 107.2 219.19 107.2H220.254C220.347 107.2 220.394 107.247 220.394 107.34V113.92C220.394 114.527 220.585 115.017 220.968 115.39C221.36 115.763 221.869 115.95 222.494 115.95C223.119 115.95 223.623 115.763 224.006 115.39C224.389 115.017 224.58 114.527 224.58 113.92V107.34C224.58 107.247 224.627 107.2 224.72 107.2H225.784C225.877 107.2 225.924 107.247 225.924 107.34V113.892C225.924 114.527 225.779 115.091 225.49 115.586C225.21 116.071 224.809 116.449 224.286 116.72C223.773 116.981 223.175 117.112 222.494 117.112ZM230.455 117.084C229.895 117.084 229.4 117 228.971 116.832C228.551 116.664 228.224 116.435 227.991 116.146C227.757 115.847 227.641 115.521 227.641 115.166V115.012C227.641 114.919 227.687 114.872 227.781 114.872H228.789C228.882 114.872 228.929 114.919 228.929 115.012V115.082C228.929 115.343 229.069 115.572 229.349 115.768C229.638 115.964 230.002 116.062 230.441 116.062C230.861 116.062 231.201 115.973 231.463 115.796C231.724 115.609 231.855 115.376 231.855 115.096C231.855 114.825 231.733 114.625 231.491 114.494C231.248 114.354 230.856 114.209 230.315 114.06C229.783 113.911 229.335 113.761 228.971 113.612C228.616 113.453 228.313 113.234 228.061 112.954C227.818 112.665 227.697 112.296 227.697 111.848C227.697 111.223 227.939 110.728 228.425 110.364C228.919 109.991 229.573 109.804 230.385 109.804C230.926 109.804 231.402 109.893 231.813 110.07C232.233 110.238 232.555 110.476 232.779 110.784C233.003 111.092 233.115 111.437 233.115 111.82V111.862C233.115 111.955 233.068 112.002 232.975 112.002H231.995C231.901 112.002 231.855 111.955 231.855 111.862V111.82C231.855 111.549 231.719 111.325 231.449 111.148C231.187 110.961 230.828 110.868 230.371 110.868C229.96 110.868 229.624 110.947 229.363 111.106C229.111 111.265 228.985 111.479 228.985 111.75C228.985 112.021 229.106 112.226 229.349 112.366C229.601 112.506 230.002 112.655 230.553 112.814C231.094 112.963 231.542 113.113 231.897 113.262C232.261 113.402 232.569 113.617 232.821 113.906C233.073 114.186 233.199 114.555 233.199 115.012C233.199 115.647 232.947 116.151 232.443 116.524C231.948 116.897 231.285 117.084 230.455 117.084ZM237.375 109.762C237.944 109.762 238.439 109.865 238.859 110.07C239.288 110.266 239.615 110.546 239.839 110.91C240.072 111.265 240.189 111.671 240.189 112.128V116.86C240.189 116.953 240.142 117 240.049 117H238.985C238.892 117 238.845 116.953 238.845 116.86V116.356C238.845 116.309 238.822 116.3 238.775 116.328C238.532 116.58 238.234 116.776 237.879 116.916C237.534 117.047 237.146 117.112 236.717 117.112C236.026 117.112 235.452 116.939 234.995 116.594C234.547 116.239 234.323 115.707 234.323 114.998C234.323 114.27 234.575 113.701 235.079 113.29C235.592 112.87 236.306 112.66 237.221 112.66H238.789C238.826 112.66 238.845 112.641 238.845 112.604V112.226C238.845 111.815 238.724 111.498 238.481 111.274C238.248 111.041 237.888 110.924 237.403 110.924C237.011 110.924 236.689 111.003 236.437 111.162C236.194 111.311 236.045 111.517 235.989 111.778C235.961 111.871 235.905 111.913 235.821 111.904L234.687 111.75C234.594 111.731 234.552 111.694 234.561 111.638C234.636 111.087 234.93 110.639 235.443 110.294C235.956 109.939 236.6 109.762 237.375 109.762ZM237.011 115.978C237.506 115.978 237.935 115.847 238.299 115.586C238.663 115.325 238.845 114.993 238.845 114.592V113.766C238.845 113.729 238.826 113.71 238.789 113.71H237.473C236.922 113.71 236.484 113.817 236.157 114.032C235.83 114.247 235.667 114.545 235.667 114.928C235.667 115.273 235.788 115.535 236.031 115.712C236.283 115.889 236.61 115.978 237.011 115.978ZM247.757 111.722C247.907 112.198 247.981 112.763 247.981 113.416C247.981 114.116 247.893 114.713 247.715 115.208C247.51 115.815 247.183 116.286 246.735 116.622C246.297 116.949 245.741 117.112 245.069 117.112C244.743 117.112 244.439 117.047 244.159 116.916C243.879 116.785 243.637 116.603 243.431 116.37C243.413 116.351 243.394 116.347 243.375 116.356C243.366 116.365 243.361 116.379 243.361 116.398V116.86C243.361 116.953 243.315 117 243.221 117H242.157C242.064 117 242.017 116.953 242.017 116.86V107.34C242.017 107.247 242.064 107.2 242.157 107.2H243.221C243.315 107.2 243.361 107.247 243.361 107.34V110.462C243.361 110.481 243.366 110.495 243.375 110.504C243.394 110.513 243.413 110.509 243.431 110.49C243.637 110.257 243.879 110.079 244.159 109.958C244.449 109.827 244.752 109.762 245.069 109.762C245.769 109.762 246.343 109.935 246.791 110.28C247.239 110.625 247.561 111.106 247.757 111.722ZM246.273 115.18C246.507 114.741 246.623 114.163 246.623 113.444C246.623 112.679 246.474 112.063 246.175 111.596C245.905 111.148 245.489 110.924 244.929 110.924C244.407 110.924 244.01 111.162 243.739 111.638C243.497 112.067 243.375 112.665 243.375 113.43C243.375 114.195 243.487 114.783 243.711 115.194C243.991 115.698 244.402 115.95 244.943 115.95C245.559 115.95 246.003 115.693 246.273 115.18ZM250.554 108.754C250.292 108.754 250.078 108.67 249.91 108.502C249.742 108.334 249.658 108.119 249.658 107.858C249.658 107.597 249.742 107.382 249.91 107.214C250.078 107.046 250.292 106.962 250.554 106.962C250.815 106.962 251.03 107.046 251.198 107.214C251.366 107.382 251.45 107.597 251.45 107.858C251.45 108.119 251.366 108.334 251.198 108.502C251.03 108.67 250.815 108.754 250.554 108.754ZM249.994 116.986C249.9 116.986 249.854 116.939 249.854 116.846V110.014C249.854 109.921 249.9 109.874 249.994 109.874H251.058C251.151 109.874 251.198 109.921 251.198 110.014V116.846C251.198 116.939 251.151 116.986 251.058 116.986H249.994ZM253.45 117C253.357 117 253.31 116.953 253.31 116.86V107.34C253.31 107.247 253.357 107.2 253.45 107.2H254.514C254.607 107.2 254.654 107.247 254.654 107.34V116.86C254.654 116.953 254.607 117 254.514 117H253.45ZM257.417 108.754C257.156 108.754 256.941 108.67 256.773 108.502C256.605 108.334 256.521 108.119 256.521 107.858C256.521 107.597 256.605 107.382 256.773 107.214C256.941 107.046 257.156 106.962 257.417 106.962C257.678 106.962 257.893 107.046 258.061 107.214C258.229 107.382 258.313 107.597 258.313 107.858C258.313 108.119 258.229 108.334 258.061 108.502C257.893 108.67 257.678 108.754 257.417 108.754ZM256.857 116.986C256.764 116.986 256.717 116.939 256.717 116.846V110.014C256.717 109.921 256.764 109.874 256.857 109.874H257.921C258.014 109.874 258.061 109.921 258.061 110.014V116.846C258.061 116.939 258.014 116.986 257.921 116.986H256.857ZM263.687 110.84C263.687 110.933 263.641 110.98 263.547 110.98H262.035C261.998 110.98 261.979 110.999 261.979 111.036V114.746C261.979 115.138 262.068 115.423 262.245 115.6C262.423 115.768 262.698 115.852 263.071 115.852H263.477C263.571 115.852 263.617 115.899 263.617 115.992V116.86C263.617 116.953 263.571 117 263.477 117C263.179 117.019 262.964 117.028 262.833 117.028C262.124 117.028 261.587 116.902 261.223 116.65C260.869 116.389 260.691 115.913 260.691 115.222V111.036C260.691 110.999 260.673 110.98 260.635 110.98H259.781C259.688 110.98 259.641 110.933 259.641 110.84V110.014C259.641 109.921 259.688 109.874 259.781 109.874H260.635C260.673 109.874 260.691 109.855 260.691 109.818V108.166C260.691 108.073 260.738 108.026 260.831 108.026H261.839C261.933 108.026 261.979 108.073 261.979 108.166V109.818C261.979 109.855 261.998 109.874 262.035 109.874H263.547C263.641 109.874 263.687 109.921 263.687 110.014V110.84ZM265.131 119.786C265.066 119.786 265.033 119.739 265.033 119.646V118.82C265.033 118.727 265.08 118.68 265.173 118.68H265.201C265.575 118.671 265.869 118.624 266.083 118.54C266.298 118.456 266.475 118.297 266.615 118.064C266.755 117.84 266.891 117.499 267.021 117.042C267.031 117.033 267.031 117.019 267.021 117C267.021 116.972 267.021 116.958 267.021 116.958L264.683 110.028L264.669 109.972C264.669 109.907 264.711 109.874 264.795 109.874H265.929C266.013 109.874 266.069 109.911 266.097 109.986L267.679 115.264C267.689 115.283 267.703 115.292 267.721 115.292C267.74 115.292 267.754 115.283 267.763 115.264L269.331 109.986C269.359 109.911 269.415 109.874 269.499 109.874H270.605C270.708 109.874 270.745 109.925 270.717 110.028L268.169 117.49C267.955 118.134 267.74 118.61 267.525 118.918C267.311 119.235 267.031 119.459 266.685 119.59C266.34 119.721 265.855 119.786 265.229 119.786H265.131Z" fill="white"/>
<path d="M318 126.667L320.575 131.883L326.334 132.725L322.167 136.783L323.15 142.517L318 139.808L312.85 142.517L313.834 136.783L309.667 132.725L315.425 131.883L318 126.667Z" fill="#55E5C5"/>
<path d="M340.488 136.54C340.605 137.009 340.664 137.495 340.664 137.996C340.664 138.497 340.6 138.961 340.472 139.388C340.269 140.071 339.88 140.615 339.304 141.02C338.739 141.415 338.061 141.612 337.272 141.612C336.493 141.612 335.827 141.42 335.272 141.036C334.717 140.652 334.328 140.129 334.104 139.468C333.997 139.169 333.939 138.908 333.928 138.684V138.652C333.928 138.567 333.976 138.524 334.072 138.524H335.336C335.432 138.524 335.485 138.572 335.496 138.668C335.507 138.743 335.533 138.855 335.576 139.004C335.693 139.399 335.896 139.713 336.184 139.948C336.483 140.172 336.84 140.284 337.256 140.284C337.693 140.284 338.061 140.167 338.36 139.932C338.669 139.687 338.877 139.351 338.984 138.924C339.059 138.7 339.096 138.391 339.096 137.996C339.096 137.644 339.064 137.319 339 137.02C338.925 136.615 338.733 136.305 338.424 136.092C338.125 135.868 337.752 135.756 337.304 135.756C336.888 135.756 336.515 135.852 336.184 136.044C335.853 136.225 335.64 136.471 335.544 136.78C335.512 136.876 335.453 136.924 335.368 136.924H334.088C333.981 136.924 333.928 136.871 333.928 136.764V130.46C333.928 130.353 333.981 130.3 334.088 130.3H340.072C340.179 130.3 340.232 130.353 340.232 130.46V131.468C340.232 131.575 340.179 131.628 340.072 131.628H335.528C335.485 131.628 335.464 131.649 335.464 131.692L335.448 135.036C335.448 135.1 335.475 135.116 335.528 135.084C335.784 134.86 336.077 134.695 336.408 134.588C336.749 134.471 337.107 134.412 337.48 134.412C338.227 134.412 338.867 134.599 339.4 134.972C339.944 135.345 340.307 135.868 340.488 136.54ZM341.967 141.5C341.85 141.5 341.807 141.441 341.839 141.324L345.599 130.428C345.631 130.343 345.695 130.3 345.791 130.3H346.991C347.108 130.3 347.151 130.359 347.119 130.476L343.359 141.372C343.327 141.457 343.263 141.5 343.167 141.5H341.967ZM355.676 136.54C355.793 137.009 355.852 137.495 355.852 137.996C355.852 138.497 355.788 138.961 355.66 139.388C355.457 140.071 355.068 140.615 354.492 141.02C353.926 141.415 353.249 141.612 352.46 141.612C351.681 141.612 351.014 141.42 350.46 141.036C349.905 140.652 349.516 140.129 349.292 139.468C349.185 139.169 349.126 138.908 349.116 138.684V138.652C349.116 138.567 349.164 138.524 349.26 138.524H350.524C350.62 138.524 350.673 138.572 350.684 138.668C350.694 138.743 350.721 138.855 350.764 139.004C350.881 139.399 351.084 139.713 351.372 139.948C351.67 140.172 352.028 140.284 352.444 140.284C352.881 140.284 353.249 140.167 353.548 139.932C353.857 139.687 354.065 139.351 354.172 138.924C354.246 138.7 354.284 138.391 354.284 137.996C354.284 137.644 354.252 137.319 354.188 137.02C354.113 136.615 353.921 136.305 353.612 136.092C353.313 135.868 352.94 135.756 352.492 135.756C352.076 135.756 351.702 135.852 351.372 136.044C351.041 136.225 350.828 136.471 350.732 136.78C350.7 136.876 350.641 136.924 350.556 136.924H349.276C349.169 136.924 349.116 136.871 349.116 136.764V130.46C349.116 130.353 349.169 130.3 349.276 130.3H355.26C355.366 130.3 355.42 130.353 355.42 130.46V131.468C355.42 131.575 355.366 131.628 355.26 131.628H350.716C350.673 131.628 350.652 131.649 350.652 131.692L350.636 135.036C350.636 135.1 350.662 135.116 350.716 135.084C350.972 134.86 351.265 134.695 351.596 134.588C351.937 134.471 352.294 134.412 352.668 134.412C353.414 134.412 354.054 134.599 354.588 134.972C355.132 135.345 355.494 135.868 355.676 136.54Z" fill="white"/>
<path d="M312.494 117.112C311.813 117.112 311.211 116.981 310.688 116.72C310.175 116.449 309.773 116.071 309.484 115.586C309.195 115.091 309.05 114.527 309.05 113.892V107.34C309.05 107.247 309.097 107.2 309.19 107.2H310.254C310.347 107.2 310.394 107.247 310.394 107.34V113.92C310.394 114.527 310.585 115.017 310.968 115.39C311.36 115.763 311.869 115.95 312.494 115.95C313.119 115.95 313.623 115.763 314.006 115.39C314.389 115.017 314.58 114.527 314.58 113.92V107.34C314.58 107.247 314.627 107.2 314.72 107.2H315.784C315.877 107.2 315.924 107.247 315.924 107.34V113.892C315.924 114.527 315.779 115.091 315.49 115.586C315.21 116.071 314.809 116.449 314.286 116.72C313.773 116.981 313.175 117.112 312.494 117.112ZM321.463 110.84C321.463 110.933 321.416 110.98 321.323 110.98H319.811C319.773 110.98 319.755 110.999 319.755 111.036V114.746C319.755 115.138 319.843 115.423 320.021 115.6C320.198 115.768 320.473 115.852 320.847 115.852H321.253C321.346 115.852 321.393 115.899 321.393 115.992V116.86C321.393 116.953 321.346 117 321.253 117C320.954 117.019 320.739 117.028 320.609 117.028C319.899 117.028 319.363 116.902 318.999 116.65C318.644 116.389 318.467 115.913 318.467 115.222V111.036C318.467 110.999 318.448 110.98 318.411 110.98H317.557C317.463 110.98 317.417 110.933 317.417 110.84V110.014C317.417 109.921 317.463 109.874 317.557 109.874H318.411C318.448 109.874 318.467 109.855 318.467 109.818V108.166C318.467 108.073 318.513 108.026 318.607 108.026H319.615C319.708 108.026 319.755 108.073 319.755 108.166V109.818C319.755 109.855 319.773 109.874 319.811 109.874H321.323C321.416 109.874 321.463 109.921 321.463 110.014V110.84ZM323.929 108.754C323.667 108.754 323.453 108.67 323.285 108.502C323.117 108.334 323.033 108.119 323.033 107.858C323.033 107.597 323.117 107.382 323.285 107.214C323.453 107.046 323.667 106.962 323.929 106.962C324.19 106.962 324.405 107.046 324.573 107.214C324.741 107.382 324.825 107.597 324.825 107.858C324.825 108.119 324.741 108.334 324.573 108.502C324.405 108.67 324.19 108.754 323.929 108.754ZM323.369 116.986C323.275 116.986 323.229 116.939 323.229 116.846V110.014C323.229 109.921 323.275 109.874 323.369 109.874H324.433C324.526 109.874 324.573 109.921 324.573 110.014V116.846C324.573 116.939 324.526 116.986 324.433 116.986H323.369ZM326.825 117C326.732 117 326.685 116.953 326.685 116.86V107.34C326.685 107.247 326.732 107.2 326.825 107.2H327.889C327.982 107.2 328.029 107.247 328.029 107.34V116.86C328.029 116.953 327.982 117 327.889 117H326.825ZM330.792 108.754C330.531 108.754 330.316 108.67 330.148 108.502C329.98 108.334 329.896 108.119 329.896 107.858C329.896 107.597 329.98 107.382 330.148 107.214C330.316 107.046 330.531 106.962 330.792 106.962C331.053 106.962 331.268 107.046 331.436 107.214C331.604 107.382 331.688 107.597 331.688 107.858C331.688 108.119 331.604 108.334 331.436 108.502C331.268 108.67 331.053 108.754 330.792 108.754ZM330.232 116.986C330.139 116.986 330.092 116.939 330.092 116.846V110.014C330.092 109.921 330.139 109.874 330.232 109.874H331.296C331.389 109.874 331.436 109.921 331.436 110.014V116.846C331.436 116.939 331.389 116.986 331.296 116.986H330.232ZM337.062 110.84C337.062 110.933 337.016 110.98 336.922 110.98H335.41C335.373 110.98 335.354 110.999 335.354 111.036V114.746C335.354 115.138 335.443 115.423 335.62 115.6C335.798 115.768 336.073 115.852 336.446 115.852H336.852C336.946 115.852 336.992 115.899 336.992 115.992V116.86C336.992 116.953 336.946 117 336.852 117C336.554 117.019 336.339 117.028 336.208 117.028C335.499 117.028 334.962 116.902 334.598 116.65C334.244 116.389 334.066 115.913 334.066 115.222V111.036C334.066 110.999 334.048 110.98 334.01 110.98H333.156C333.063 110.98 333.016 110.933 333.016 110.84V110.014C333.016 109.921 333.063 109.874 333.156 109.874H334.01C334.048 109.874 334.066 109.855 334.066 109.818V108.166C334.066 108.073 334.113 108.026 334.206 108.026H335.214C335.308 108.026 335.354 108.073 335.354 108.166V109.818C335.354 109.855 335.373 109.874 335.41 109.874H336.922C337.016 109.874 337.062 109.921 337.062 110.014V110.84ZM338.506 119.786C338.441 119.786 338.408 119.739 338.408 119.646V118.82C338.408 118.727 338.455 118.68 338.548 118.68H338.576C338.95 118.671 339.244 118.624 339.458 118.54C339.673 118.456 339.85 118.297 339.99 118.064C340.13 117.84 340.266 117.499 340.396 117.042C340.406 117.033 340.406 117.019 340.396 117C340.396 116.972 340.396 116.958 340.396 116.958L338.058 110.028L338.044 109.972C338.044 109.907 338.086 109.874 338.17 109.874H339.304C339.388 109.874 339.444 109.911 339.472 109.986L341.054 115.264C341.064 115.283 341.078 115.292 341.096 115.292C341.115 115.292 341.129 115.283 341.138 115.264L342.706 109.986C342.734 109.911 342.79 109.874 342.874 109.874H343.98C344.083 109.874 344.12 109.925 344.092 110.028L341.544 117.49C341.33 118.134 341.115 118.61 340.9 118.918C340.686 119.235 340.406 119.459 340.06 119.59C339.715 119.721 339.23 119.786 338.604 119.786H338.506Z" fill="white"/>
<path d="M403 126.667L405.575 131.883L411.334 132.725L407.167 136.783L408.15 142.517L403 139.808L397.85 142.517L398.834 136.783L394.667 132.725L400.425 131.883L403 126.667Z" fill="#55E5C5"/>
<path d="M425.488 136.54C425.605 137.009 425.664 137.495 425.664 137.996C425.664 138.497 425.6 138.961 425.472 139.388C425.269 140.071 424.88 140.615 424.304 141.02C423.739 141.415 423.061 141.612 422.272 141.612C421.493 141.612 420.827 141.42 420.272 141.036C419.717 140.652 419.328 140.129 419.104 139.468C418.997 139.169 418.939 138.908 418.928 138.684V138.652C418.928 138.567 418.976 138.524 419.072 138.524H420.336C420.432 138.524 420.485 138.572 420.496 138.668C420.507 138.743 420.533 138.855 420.576 139.004C420.693 139.399 420.896 139.713 421.184 139.948C421.483 140.172 421.84 140.284 422.256 140.284C422.693 140.284 423.061 140.167 423.36 139.932C423.669 139.687 423.877 139.351 423.984 138.924C424.059 138.7 424.096 138.391 424.096 137.996C424.096 137.644 424.064 137.319 424 137.02C423.925 136.615 423.733 136.305 423.424 136.092C423.125 135.868 422.752 135.756 422.304 135.756C421.888 135.756 421.515 135.852 421.184 136.044C420.853 136.225 420.64 136.471 420.544 136.78C420.512 136.876 420.453 136.924 420.368 136.924H419.088C418.981 136.924 418.928 136.871 418.928 136.764V130.46C418.928 130.353 418.981 130.3 419.088 130.3H425.072C425.179 130.3 425.232 130.353 425.232 130.46V131.468C425.232 131.575 425.179 131.628 425.072 131.628H420.528C420.485 131.628 420.464 131.649 420.464 131.692L420.448 135.036C420.448 135.1 420.475 135.116 420.528 135.084C420.784 134.86 421.077 134.695 421.408 134.588C421.749 134.471 422.107 134.412 422.48 134.412C423.227 134.412 423.867 134.599 424.4 134.972C424.944 135.345 425.307 135.868 425.488 136.54ZM426.967 141.5C426.85 141.5 426.807 141.441 426.839 141.324L430.599 130.428C430.631 130.343 430.695 130.3 430.791 130.3H431.991C432.108 130.3 432.151 130.359 432.119 130.476L428.359 141.372C428.327 141.457 428.263 141.5 428.167 141.5H426.967ZM440.676 136.54C440.793 137.009 440.852 137.495 440.852 137.996C440.852 138.497 440.788 138.961 440.66 139.388C440.457 140.071 440.068 140.615 439.492 141.02C438.926 141.415 438.249 141.612 437.46 141.612C436.681 141.612 436.014 141.42 435.46 141.036C434.905 140.652 434.516 140.129 434.292 139.468C434.185 139.169 434.126 138.908 434.116 138.684V138.652C434.116 138.567 434.164 138.524 434.26 138.524H435.524C435.62 138.524 435.673 138.572 435.684 138.668C435.694 138.743 435.721 138.855 435.764 139.004C435.881 139.399 436.084 139.713 436.372 139.948C436.67 140.172 437.028 140.284 437.444 140.284C437.881 140.284 438.249 140.167 438.548 139.932C438.857 139.687 439.065 139.351 439.172 138.924C439.246 138.7 439.284 138.391 439.284 137.996C439.284 137.644 439.252 137.319 439.188 137.02C439.113 136.615 438.921 136.305 438.612 136.092C438.313 135.868 437.94 135.756 437.492 135.756C437.076 135.756 436.702 135.852 436.372 136.044C436.041 136.225 435.828 136.471 435.732 136.78C435.7 136.876 435.641 136.924 435.556 136.924H434.276C434.169 136.924 434.116 136.871 434.116 136.764V130.46C434.116 130.353 434.169 130.3 434.276 130.3H440.26C440.366 130.3 440.42 130.353 440.42 130.46V131.468C440.42 131.575 440.366 131.628 440.26 131.628H435.716C435.673 131.628 435.652 131.649 435.652 131.692L435.636 135.036C435.636 135.1 435.662 135.116 435.716 135.084C435.972 134.86 436.265 134.695 436.596 134.588C436.937 134.471 437.294 134.412 437.668 134.412C438.414 134.412 439.054 134.599 439.588 134.972C440.132 135.345 440.494 135.868 440.676 136.54Z" fill="white"/>
<path d="M396.626 117C396.542 117 396.486 116.963 396.458 116.888L393.462 107.354L393.448 107.298C393.448 107.233 393.49 107.2 393.574 107.2H394.708C394.792 107.2 394.848 107.237 394.876 107.312L397.186 115.054C397.195 115.073 397.209 115.082 397.228 115.082C397.247 115.082 397.261 115.073 397.27 115.054L399.58 107.312C399.608 107.237 399.659 107.2 399.734 107.2H400.84C400.943 107.2 400.98 107.251 400.952 107.354L397.928 116.888C397.9 116.963 397.844 117 397.76 117H396.626ZM403.2 108.754C402.939 108.754 402.724 108.67 402.556 108.502C402.388 108.334 402.304 108.119 402.304 107.858C402.304 107.597 402.388 107.382 402.556 107.214C402.724 107.046 402.939 106.962 403.2 106.962C403.462 106.962 403.676 107.046 403.844 107.214C404.012 107.382 404.096 107.597 404.096 107.858C404.096 108.119 404.012 108.334 403.844 108.502C403.676 108.67 403.462 108.754 403.2 108.754ZM402.64 116.986C402.547 116.986 402.5 116.939 402.5 116.846V110.014C402.5 109.921 402.547 109.874 402.64 109.874H403.704C403.798 109.874 403.844 109.921 403.844 110.014V116.846C403.844 116.939 403.798 116.986 403.704 116.986H402.64ZM408.463 117.084C407.903 117.084 407.408 117 406.979 116.832C406.559 116.664 406.232 116.435 405.999 116.146C405.765 115.847 405.649 115.521 405.649 115.166V115.012C405.649 114.919 405.695 114.872 405.789 114.872H406.797C406.89 114.872 406.937 114.919 406.937 115.012V115.082C406.937 115.343 407.077 115.572 407.357 115.768C407.646 115.964 408.01 116.062 408.449 116.062C408.869 116.062 409.209 115.973 409.471 115.796C409.732 115.609 409.863 115.376 409.863 115.096C409.863 114.825 409.741 114.625 409.499 114.494C409.256 114.354 408.864 114.209 408.323 114.06C407.791 113.911 407.343 113.761 406.979 113.612C406.624 113.453 406.321 113.234 406.069 112.954C405.826 112.665 405.705 112.296 405.705 111.848C405.705 111.223 405.947 110.728 406.433 110.364C406.927 109.991 407.581 109.804 408.393 109.804C408.934 109.804 409.41 109.893 409.821 110.07C410.241 110.238 410.563 110.476 410.787 110.784C411.011 111.092 411.123 111.437 411.123 111.82V111.862C411.123 111.955 411.076 112.002 410.983 112.002H410.003C409.909 112.002 409.863 111.955 409.863 111.862V111.82C409.863 111.549 409.727 111.325 409.457 111.148C409.195 110.961 408.836 110.868 408.379 110.868C407.968 110.868 407.632 110.947 407.371 111.106C407.119 111.265 406.993 111.479 406.993 111.75C406.993 112.021 407.114 112.226 407.357 112.366C407.609 112.506 408.01 112.655 408.561 112.814C409.102 112.963 409.55 113.113 409.905 113.262C410.269 113.402 410.577 113.617 410.829 113.906C411.081 114.186 411.207 114.555 411.207 115.012C411.207 115.647 410.955 116.151 410.451 116.524C409.956 116.897 409.293 117.084 408.463 117.084ZM417.021 110.014C417.021 109.921 417.067 109.874 417.161 109.874H418.211C418.304 109.874 418.351 109.921 418.351 110.014V116.86C418.351 116.953 418.304 117 418.211 117H417.161C417.067 117 417.021 116.953 417.021 116.86V116.342C417.021 116.323 417.011 116.314 416.993 116.314C416.983 116.305 416.969 116.309 416.951 116.328C416.577 116.841 416.003 117.098 415.229 117.098C414.771 117.098 414.347 117.009 413.955 116.832C413.572 116.655 413.264 116.393 413.031 116.048C412.797 115.703 412.681 115.283 412.681 114.788V110.014C412.681 109.921 412.727 109.874 412.821 109.874H413.871C413.964 109.874 414.011 109.921 414.011 110.014V114.368C414.011 114.853 414.137 115.236 414.389 115.516C414.65 115.796 415.014 115.936 415.481 115.936C415.947 115.936 416.321 115.796 416.601 115.516C416.881 115.227 417.021 114.844 417.021 114.368V110.014ZM422.916 109.762C423.485 109.762 423.98 109.865 424.4 110.07C424.829 110.266 425.156 110.546 425.38 110.91C425.613 111.265 425.73 111.671 425.73 112.128V116.86C425.73 116.953 425.683 117 425.59 117H424.526C424.433 117 424.386 116.953 424.386 116.86V116.356C424.386 116.309 424.363 116.3 424.316 116.328C424.073 116.58 423.775 116.776 423.42 116.916C423.075 117.047 422.687 117.112 422.258 117.112C421.567 117.112 420.993 116.939 420.536 116.594C420.088 116.239 419.864 115.707 419.864 114.998C419.864 114.27 420.116 113.701 420.62 113.29C421.133 112.87 421.847 112.66 422.762 112.66H424.33C424.367 112.66 424.386 112.641 424.386 112.604V112.226C424.386 111.815 424.265 111.498 424.022 111.274C423.789 111.041 423.429 110.924 422.944 110.924C422.552 110.924 422.23 111.003 421.978 111.162C421.735 111.311 421.586 111.517 421.53 111.778C421.502 111.871 421.446 111.913 421.362 111.904L420.228 111.75C420.135 111.731 420.093 111.694 420.102 111.638C420.177 111.087 420.471 110.639 420.984 110.294C421.497 109.939 422.141 109.762 422.916 109.762ZM422.552 115.978C423.047 115.978 423.476 115.847 423.84 115.586C424.204 115.325 424.386 114.993 424.386 114.592V113.766C424.386 113.729 424.367 113.71 424.33 113.71H423.014C422.463 113.71 422.025 113.817 421.698 114.032C421.371 114.247 421.208 114.545 421.208 114.928C421.208 115.273 421.329 115.535 421.572 115.712C421.824 115.889 422.151 115.978 422.552 115.978ZM427.684 117C427.591 117 427.544 116.953 427.544 116.86V107.34C427.544 107.247 427.591 107.2 427.684 107.2H428.748C428.842 107.2 428.888 107.247 428.888 107.34V116.86C428.888 116.953 428.842 117 428.748 117H427.684ZM438.066 107.34C438.066 107.247 438.113 107.2 438.206 107.2H439.27C439.363 107.2 439.41 107.247 439.41 107.34V116.86C439.41 116.953 439.363 117 439.27 117H438.206C438.113 117 438.066 116.953 438.066 116.86V116.398C438.066 116.379 438.057 116.365 438.038 116.356C438.029 116.347 438.015 116.351 437.996 116.37C437.791 116.603 437.548 116.785 437.268 116.916C436.988 117.047 436.685 117.112 436.358 117.112C435.686 117.112 435.126 116.949 434.678 116.622C434.239 116.286 433.917 115.815 433.712 115.208C433.535 114.713 433.446 114.116 433.446 113.416C433.446 112.763 433.521 112.198 433.67 111.722C433.866 111.106 434.188 110.625 434.636 110.28C435.084 109.935 435.658 109.762 436.358 109.762C436.675 109.762 436.974 109.827 437.254 109.958C437.543 110.079 437.791 110.257 437.996 110.49C438.015 110.509 438.029 110.513 438.038 110.504C438.057 110.495 438.066 110.481 438.066 110.462V107.34ZM437.716 115.194C437.931 114.802 438.038 114.214 438.038 113.43C438.038 112.646 437.921 112.049 437.688 111.638C437.417 111.162 437.021 110.924 436.498 110.924C435.938 110.924 435.523 111.148 435.252 111.596C434.953 112.063 434.804 112.679 434.804 113.444C434.804 114.163 434.921 114.741 435.154 115.18C435.425 115.693 435.868 115.95 436.484 115.95C437.025 115.95 437.436 115.698 437.716 115.194ZM447.148 112.548C447.186 112.931 447.2 113.36 447.19 113.836C447.19 113.929 447.144 113.976 447.05 113.976H442.584C442.547 113.976 442.528 113.995 442.528 114.032C442.528 114.349 442.556 114.592 442.612 114.76C442.715 115.133 442.92 115.427 443.228 115.642C443.546 115.847 443.942 115.95 444.418 115.95C445.109 115.95 445.641 115.665 446.014 115.096C446.061 115.003 446.122 114.989 446.196 115.054L446.994 115.586C447.06 115.642 447.074 115.703 447.036 115.768C446.775 116.188 446.402 116.519 445.916 116.762C445.44 117.005 444.899 117.126 444.292 117.126C443.611 117.126 443.037 116.977 442.57 116.678C442.104 116.379 441.754 115.955 441.52 115.404C441.296 114.853 441.184 114.186 441.184 113.402C441.184 112.721 441.236 112.203 441.338 111.848C441.506 111.204 441.842 110.695 442.346 110.322C442.85 109.949 443.462 109.762 444.18 109.762C445.123 109.762 445.828 110 446.294 110.476C446.761 110.943 447.046 111.633 447.148 112.548ZM444.18 110.924C443.779 110.924 443.448 111.027 443.186 111.232C442.925 111.428 442.748 111.694 442.654 112.03C442.589 112.235 442.547 112.497 442.528 112.814C442.528 112.851 442.547 112.87 442.584 112.87H445.79C445.828 112.87 445.846 112.851 445.846 112.814C445.828 112.506 445.8 112.277 445.762 112.128C445.669 111.764 445.482 111.475 445.202 111.26C444.932 111.036 444.591 110.924 444.18 110.924ZM451.283 117.084C450.723 117.084 450.228 117 449.799 116.832C449.379 116.664 449.052 116.435 448.819 116.146C448.586 115.847 448.469 115.521 448.469 115.166V115.012C448.469 114.919 448.516 114.872 448.609 114.872H449.617C449.71 114.872 449.757 114.919 449.757 115.012V115.082C449.757 115.343 449.897 115.572 450.177 115.768C450.466 115.964 450.83 116.062 451.269 116.062C451.689 116.062 452.03 115.973 452.291 115.796C452.552 115.609 452.683 115.376 452.683 115.096C452.683 114.825 452.562 114.625 452.319 114.494C452.076 114.354 451.684 114.209 451.143 114.06C450.611 113.911 450.163 113.761 449.799 113.612C449.444 113.453 449.141 113.234 448.889 112.954C448.646 112.665 448.525 112.296 448.525 111.848C448.525 111.223 448.768 110.728 449.253 110.364C449.748 109.991 450.401 109.804 451.213 109.804C451.754 109.804 452.23 109.893 452.641 110.07C453.061 110.238 453.383 110.476 453.607 110.784C453.831 111.092 453.943 111.437 453.943 111.82V111.862C453.943 111.955 453.896 112.002 453.803 112.002H452.823C452.73 112.002 452.683 111.955 452.683 111.862V111.82C452.683 111.549 452.548 111.325 452.277 111.148C452.016 110.961 451.656 110.868 451.199 110.868C450.788 110.868 450.452 110.947 450.191 111.106C449.939 111.265 449.813 111.479 449.813 111.75C449.813 112.021 449.934 112.226 450.177 112.366C450.429 112.506 450.83 112.655 451.381 112.814C451.922 112.963 452.37 113.113 452.725 113.262C453.089 113.402 453.397 113.617 453.649 113.906C453.901 114.186 454.027 114.555 454.027 115.012C454.027 115.647 453.775 116.151 453.271 116.524C452.776 116.897 452.114 117.084 451.283 117.084ZM456.411 108.754C456.15 108.754 455.935 108.67 455.767 108.502C455.599 108.334 455.515 108.119 455.515 107.858C455.515 107.597 455.599 107.382 455.767 107.214C455.935 107.046 456.15 106.962 456.411 106.962C456.672 106.962 456.887 107.046 457.055 107.214C457.223 107.382 457.307 107.597 457.307 107.858C457.307 108.119 457.223 108.334 457.055 108.502C456.887 108.67 456.672 108.754 456.411 108.754ZM455.851 116.986C455.758 116.986 455.711 116.939 455.711 116.846V110.014C455.711 109.921 455.758 109.874 455.851 109.874H456.915C457.008 109.874 457.055 109.921 457.055 110.014V116.846C457.055 116.939 457.008 116.986 456.915 116.986H455.851ZM463.55 110.014C463.55 109.921 463.596 109.874 463.69 109.874H464.754C464.847 109.874 464.894 109.921 464.894 110.014V116.636C464.894 117.765 464.572 118.573 463.928 119.058C463.293 119.543 462.439 119.786 461.366 119.786C461.216 119.786 460.983 119.777 460.666 119.758C460.572 119.749 460.526 119.697 460.526 119.604L460.568 118.638C460.568 118.601 460.582 118.568 460.61 118.54C460.638 118.512 460.675 118.503 460.722 118.512C460.852 118.521 461.044 118.526 461.296 118.526C462.089 118.526 462.663 118.377 463.018 118.078C463.372 117.789 463.55 117.294 463.55 116.594V116.342C463.55 116.323 463.54 116.309 463.522 116.3C463.512 116.291 463.498 116.295 463.48 116.314C463.088 116.771 462.514 117 461.758 117C461.151 117 460.6 116.841 460.106 116.524C459.62 116.207 459.284 115.74 459.098 115.124C458.976 114.713 458.916 114.144 458.916 113.416C458.916 112.641 458.986 112.044 459.126 111.624C459.303 111.064 459.616 110.616 460.064 110.28C460.521 109.935 461.058 109.762 461.674 109.762C462.439 109.762 463.041 109.995 463.48 110.462C463.498 110.481 463.512 110.49 463.522 110.49C463.54 110.481 463.55 110.467 463.55 110.448V110.014ZM463.466 114.718C463.494 114.569 463.512 114.41 463.522 114.242C463.54 114.074 463.55 113.794 463.55 113.402C463.55 113.01 463.54 112.735 463.522 112.576C463.512 112.408 463.489 112.249 463.452 112.1C463.377 111.755 463.209 111.475 462.948 111.26C462.686 111.036 462.36 110.924 461.968 110.924C461.576 110.924 461.249 111.036 460.988 111.26C460.726 111.475 460.54 111.755 460.428 112.1C460.325 112.38 460.274 112.814 460.274 113.402C460.274 114.046 460.32 114.485 460.414 114.718C460.507 115.063 460.689 115.348 460.96 115.572C461.24 115.787 461.576 115.894 461.968 115.894C462.378 115.894 462.71 115.787 462.962 115.572C463.223 115.348 463.391 115.063 463.466 114.718ZM469.947 109.776C470.712 109.776 471.319 110 471.767 110.448C472.215 110.887 472.439 111.484 472.439 112.24V116.86C472.439 116.953 472.392 117 472.299 117H471.235C471.142 117 471.095 116.953 471.095 116.86V112.506C471.095 112.039 470.96 111.661 470.689 111.372C470.418 111.083 470.059 110.938 469.611 110.938C469.172 110.938 468.813 111.083 468.533 111.372C468.253 111.661 468.113 112.035 468.113 112.492V116.86C468.113 116.953 468.066 117 467.973 117H466.909C466.816 117 466.769 116.953 466.769 116.86V110.014C466.769 109.921 466.816 109.874 466.909 109.874H467.973C468.066 109.874 468.113 109.921 468.113 110.014V110.518C468.113 110.537 468.118 110.551 468.127 110.56C468.146 110.569 468.16 110.565 468.169 110.546C468.57 110.033 469.163 109.776 469.947 109.776Z" fill="white"/>
<rect opacity="0.5" x="71" y="182" width="403" height="15" rx="3" fill="white"/>
<rect opacity="0.5" x="71" y="214" width="344" height="15" rx="3" fill="white"/>
<rect opacity="0.5" x="71" y="246" width="371" height="15" rx="3" fill="white"/>
<rect opacity="0.5" x="71" y="278" width="278" height="15" rx="3" fill="white"/>
</svg>
