<svg width="113" height="18" viewBox="0 0 113 18" fill="none" xmlns="http://www.w3.org/2000/svg">
<path d="M4.392 17C4.216 17 4.104 16.92 4.056 16.76L0.624 5.048L0.6 4.952C0.6 4.792 0.688 4.712 0.864 4.712H3.144C3.32 4.712 3.432 4.792 3.48 4.952L5.472 12.968C5.488 13.016 5.512 13.04 5.544 13.04C5.576 13.04 5.6 13.016 5.616 12.968L7.704 4.952C7.752 4.792 7.864 4.712 8.04 4.712H10.032C10.208 4.712 10.32 4.792 10.368 4.952L12.504 12.968C12.52 13.016 12.544 13.04 12.576 13.04C12.608 13.04 12.632 13.016 12.648 12.968L14.784 4.952C14.832 4.792 14.944 4.712 15.12 4.712L17.376 4.76C17.472 4.76 17.536 4.792 17.568 4.856C17.616 4.904 17.632 4.976 17.616 5.072L14.16 16.76C14.112 16.92 14.008 17 13.848 17H11.544C11.368 17 11.256 16.92 11.208 16.76L9.096 9.44C9.08 9.392 9.056 9.368 9.024 9.368C8.992 9.368 8.968 9.392 8.952 9.44L7.008 16.76C6.96 16.92 6.848 17 6.672 17H4.392ZM29.4336 9.488C29.4976 9.888 29.5296 10.336 29.5296 10.832L29.5056 11.576C29.5056 11.768 29.4096 11.864 29.2176 11.864H21.7056C21.6256 11.864 21.5856 11.904 21.5856 11.984C21.6336 12.512 21.7056 12.872 21.8016 13.064C22.1856 14.216 23.1216 14.8 24.6096 14.816C25.6976 14.816 26.5616 14.368 27.2016 13.472C27.2656 13.376 27.3456 13.328 27.4416 13.328C27.5056 13.328 27.5616 13.352 27.6096 13.4L29.0976 14.624C29.2416 14.736 29.2656 14.864 29.1696 15.008C28.6736 15.712 28.0096 16.256 27.1776 16.64C26.3616 17.024 25.4496 17.216 24.4416 17.216C23.1936 17.216 22.1296 16.936 21.2496 16.376C20.3856 15.816 19.7536 15.032 19.3536 14.024C18.9856 13.16 18.8016 11.96 18.8016 10.424C18.8016 9.496 18.8976 8.744 19.0896 8.168C19.4096 7.048 20.0096 6.168 20.8896 5.528C21.7856 4.872 22.8576 4.544 24.1056 4.544C27.2576 4.544 29.0336 6.192 29.4336 9.488ZM24.1056 6.944C23.5136 6.944 23.0176 7.096 22.6176 7.4C22.2336 7.688 21.9616 8.096 21.8016 8.624C21.7056 8.896 21.6416 9.248 21.6096 9.68C21.5776 9.76 21.6096 9.8 21.7056 9.8H26.5776C26.6576 9.8 26.6976 9.76 26.6976 9.68C26.6656 9.28 26.6176 8.976 26.5536 8.768C26.4096 8.192 26.1216 7.744 25.6896 7.424C25.2736 7.104 24.7456 6.944 24.1056 6.944ZM42.4179 7.904C42.6899 8.8 42.8259 9.776 42.8259 10.832C42.8259 11.968 42.6739 12.968 42.3699 13.832C42.0179 14.888 41.4499 15.712 40.6659 16.304C39.8819 16.896 38.9219 17.192 37.7859 17.192C36.6659 17.192 35.7459 16.768 35.0259 15.92C34.9939 15.872 34.9619 15.856 34.9299 15.872C34.8979 15.888 34.8819 15.92 34.8819 15.968V16.712C34.8819 16.792 34.8499 16.864 34.7859 16.928C34.7379 16.976 34.6739 17 34.5939 17H32.3859C32.3059 17 32.2339 16.976 32.1699 16.928C32.1219 16.864 32.0979 16.792 32.0979 16.712V0.487999C32.0979 0.408 32.1219 0.343999 32.1699 0.295999C32.2339 0.231999 32.3059 0.199999 32.3859 0.199999H34.5939C34.6739 0.199999 34.7379 0.231999 34.7859 0.295999C34.8499 0.343999 34.8819 0.408 34.8819 0.487999V5.696C34.8819 5.744 34.8979 5.776 34.9299 5.792C34.9619 5.808 34.9939 5.8 35.0259 5.768C35.7139 4.952 36.6259 4.544 37.7619 4.544C38.9459 4.544 39.9219 4.84 40.6899 5.432C41.4739 6.024 42.0499 6.848 42.4179 7.904ZM39.3939 13.64C39.7779 12.968 39.9699 12.048 39.9699 10.88C39.9699 9.632 39.7299 8.656 39.2499 7.952C38.8179 7.28 38.1779 6.944 37.3299 6.944C36.5459 6.944 35.9459 7.296 35.5299 8C35.1299 8.656 34.9299 9.608 34.9299 10.856C34.9299 12.088 35.1139 13.016 35.4819 13.64C35.8979 14.408 36.5219 14.792 37.3539 14.792C37.8019 14.792 38.2019 14.696 38.5539 14.504C38.9059 14.296 39.1859 14.008 39.3939 13.64ZM55.0322 9.008C55.3522 9.776 55.5122 10.656 55.5122 11.648C55.5122 12.544 55.3762 13.336 55.1042 14.024C54.7362 15.032 54.1282 15.816 53.2802 16.376C52.4322 16.92 51.4082 17.192 50.2082 17.192C49.0242 17.192 47.9922 16.896 47.1122 16.304C46.2482 15.696 45.6322 14.88 45.2642 13.856C45.0722 13.36 44.9602 12.712 44.9282 11.912C44.9282 11.72 45.0242 11.624 45.2162 11.624H47.4482C47.6402 11.624 47.7362 11.72 47.7362 11.912C47.7682 12.424 47.8482 12.832 47.9762 13.136C48.1202 13.648 48.3842 14.056 48.7682 14.36C49.1682 14.648 49.6482 14.792 50.2082 14.792C51.2642 14.792 51.9922 14.312 52.3922 13.352C52.6002 12.888 52.7042 12.288 52.7042 11.552C52.7042 10.736 52.5842 10.064 52.3442 9.536C51.9282 8.64 51.2082 8.192 50.1842 8.192C49.9122 8.192 49.5442 8.352 49.0802 8.672C49.0162 8.704 48.9602 8.72 48.9122 8.72C48.8322 8.72 48.7522 8.672 48.6722 8.576L47.5682 7.04C47.5202 6.96 47.4962 6.896 47.4962 6.848C47.4962 6.768 47.5282 6.696 47.5922 6.632L51.5522 2.744C51.5842 2.712 51.5922 2.68 51.5762 2.648C51.5602 2.616 51.5282 2.6 51.4802 2.6H45.4802C45.4002 2.6 45.3282 2.576 45.2642 2.528C45.2162 2.464 45.1922 2.392 45.1922 2.312V0.487999C45.1922 0.408 45.2162 0.343999 45.2642 0.295999C45.3282 0.231999 45.4002 0.199999 45.4802 0.199999H55.0562C55.1362 0.199999 55.2002 0.231999 55.2482 0.295999C55.3122 0.343999 55.3442 0.408 55.3442 0.487999V2.576C55.3442 2.72 55.2962 2.84 55.2002 2.936L51.7682 6.392C51.7042 6.456 51.7362 6.504 51.8642 6.536C53.3522 6.744 54.4082 7.568 55.0322 9.008Z" fill="white"/>
<path d="M64.6142 4.712C64.6942 4.712 64.7582 4.744 64.8062 4.808C64.8702 4.856 64.9022 4.92 64.9022 5V6.896C64.9022 6.976 64.8702 7.048 64.8062 7.112C64.7582 7.16 64.6942 7.184 64.6142 7.184H62.2382C62.1582 7.184 62.1182 7.224 62.1182 7.304V16.712C62.1182 16.792 62.0862 16.864 62.0222 16.928C61.9742 16.976 61.9102 17 61.8302 17H59.6222C59.5422 17 59.4702 16.976 59.4062 16.928C59.3582 16.864 59.3342 16.792 59.3342 16.712V7.304C59.3342 7.224 59.2942 7.184 59.2142 7.184H57.7262C57.6462 7.184 57.5742 7.16 57.5102 7.112C57.4622 7.048 57.4382 6.976 57.4382 6.896V5C57.4382 4.92 57.4622 4.856 57.5102 4.808C57.5742 4.744 57.6462 4.712 57.7262 4.712H59.2142C59.2942 4.712 59.3342 4.672 59.3342 4.592V4.16C59.3342 3.12 59.4702 2.32 59.7422 1.76C60.0142 1.184 60.4622 0.776 61.0862 0.535999C61.7102 0.295999 62.5902 0.183999 63.7262 0.199999H64.5662C64.6462 0.199999 64.7102 0.231999 64.7582 0.295999C64.8222 0.343999 64.8542 0.408 64.8542 0.487999V2.168C64.8542 2.248 64.8222 2.32 64.7582 2.384C64.7102 2.432 64.6462 2.456 64.5662 2.456H63.9422C63.2542 2.456 62.7742 2.592 62.5022 2.864C62.2462 3.136 62.1182 3.632 62.1182 4.352V4.592C62.1182 4.672 62.1582 4.712 62.2382 4.712H64.6142ZM67.5422 17C67.4622 17 67.3902 16.976 67.3262 16.928C67.2782 16.864 67.2542 16.792 67.2542 16.712V0.487999C67.2542 0.408 67.2782 0.343999 67.3262 0.295999C67.3902 0.231999 67.4622 0.199999 67.5422 0.199999H69.7502C69.8302 0.199999 69.8942 0.231999 69.9422 0.295999C70.0062 0.343999 70.0382 0.408 70.0382 0.487999V16.712C70.0382 16.792 70.0062 16.864 69.9422 16.928C69.8942 16.976 69.8302 17 69.7502 17H67.5422ZM78.2038 17.192C76.9398 17.192 75.8518 16.872 74.9398 16.232C74.0438 15.592 73.4118 14.704 73.0438 13.568C72.7718 12.704 72.6358 11.792 72.6358 10.832C72.6358 9.808 72.7638 8.896 73.0198 8.096C73.3878 6.976 74.0278 6.104 74.9398 5.48C75.8518 4.856 76.9478 4.544 78.2278 4.544C79.4438 4.544 80.4918 4.856 81.3718 5.48C82.2678 6.104 82.8998 6.968 83.2678 8.072C83.5558 8.84 83.6998 9.752 83.6998 10.808C83.6998 11.816 83.5638 12.728 83.2918 13.544C82.9238 14.68 82.2918 15.576 81.3958 16.232C80.4998 16.872 79.4358 17.192 78.2038 17.192ZM78.2038 14.792C78.7958 14.792 79.2998 14.624 79.7158 14.288C80.1478 13.952 80.4598 13.48 80.6518 12.872C80.8118 12.344 80.8918 11.672 80.8918 10.856C80.8918 9.992 80.8118 9.32 80.6518 8.84C80.4758 8.232 80.1718 7.768 79.7398 7.448C79.3078 7.112 78.7798 6.944 78.1558 6.944C77.5638 6.944 77.0518 7.112 76.6198 7.448C76.1878 7.768 75.8758 8.232 75.6838 8.84C75.5238 9.4 75.4438 10.072 75.4438 10.856C75.4438 11.64 75.5238 12.312 75.6838 12.872C75.8598 13.48 76.1638 13.952 76.5958 14.288C77.0438 14.624 77.5798 14.792 78.2038 14.792ZM88.6264 17C88.4504 17 88.3384 16.92 88.2904 16.76L84.8584 5.048L84.8344 4.952C84.8344 4.792 84.9224 4.712 85.0984 4.712H87.3784C87.5544 4.712 87.6664 4.792 87.7144 4.952L89.7064 12.968C89.7224 13.016 89.7464 13.04 89.7784 13.04C89.8104 13.04 89.8344 13.016 89.8504 12.968L91.9384 4.952C91.9864 4.792 92.0984 4.712 92.2744 4.712H94.2664C94.4424 4.712 94.5544 4.792 94.6024 4.952L96.7384 12.968C96.7544 13.016 96.7784 13.04 96.8104 13.04C96.8424 13.04 96.8664 13.016 96.8824 12.968L99.0184 4.952C99.0664 4.792 99.1784 4.712 99.3544 4.712L101.61 4.76C101.706 4.76 101.77 4.792 101.802 4.856C101.85 4.904 101.866 4.976 101.85 5.072L98.3944 16.76C98.3464 16.92 98.2424 17 98.0824 17H95.7784C95.6024 17 95.4904 16.92 95.4424 16.76L93.3304 9.44C93.3144 9.392 93.2904 9.368 93.2584 9.368C93.2264 9.368 93.2024 9.392 93.1864 9.44L91.2424 16.76C91.1944 16.92 91.0824 17 90.9064 17H88.6264ZM107.72 17.144C106.712 17.144 105.824 17 105.056 16.712C104.304 16.408 103.72 16 103.304 15.488C102.888 14.96 102.68 14.376 102.68 13.736V13.52C102.68 13.44 102.704 13.376 102.752 13.328C102.816 13.264 102.888 13.232 102.968 13.232H105.08C105.16 13.232 105.224 13.264 105.272 13.328C105.336 13.376 105.368 13.44 105.368 13.52V13.568C105.368 13.968 105.584 14.32 106.016 14.624C106.464 14.912 107.024 15.056 107.696 15.056C108.336 15.056 108.856 14.928 109.256 14.672C109.656 14.4 109.856 14.064 109.856 13.664C109.856 13.296 109.688 13.024 109.352 12.848C109.032 12.656 108.504 12.456 107.768 12.248L106.856 11.96C106.04 11.72 105.352 11.464 104.792 11.192C104.232 10.92 103.76 10.552 103.376 10.088C102.992 9.608 102.8 9 102.8 8.264C102.8 7.144 103.24 6.256 104.12 5.6C105 4.928 106.16 4.592 107.6 4.592C108.576 4.592 109.432 4.752 110.168 5.072C110.904 5.376 111.472 5.808 111.872 6.368C112.272 6.912 112.472 7.536 112.472 8.24C112.472 8.32 112.44 8.392 112.376 8.456C112.328 8.504 112.264 8.528 112.184 8.528H110.144C110.064 8.528 109.992 8.504 109.928 8.456C109.88 8.392 109.856 8.32 109.856 8.24C109.856 7.824 109.648 7.48 109.232 7.208C108.832 6.92 108.28 6.776 107.576 6.776C106.952 6.776 106.44 6.896 106.04 7.136C105.656 7.36 105.464 7.68 105.464 8.096C105.464 8.48 105.648 8.776 106.016 8.984C106.4 9.176 107.032 9.392 107.912 9.632L108.44 9.776C109.288 10.032 110 10.296 110.576 10.568C111.152 10.824 111.64 11.192 112.04 11.672C112.44 12.136 112.64 12.744 112.64 13.496C112.64 14.632 112.192 15.528 111.296 16.184C110.4 16.824 109.208 17.144 107.72 17.144Z" fill="#55E5C5"/>
</svg>
