<svg width="32" height="26" viewBox="0 0 32 26" fill="none" xmlns="http://www.w3.org/2000/svg">
<path id="Vector" d="M10.0669 26.0005C22.1394 26.0005 28.7444 15.9961 28.7444 7.32297C28.7444 7.04172 28.7381 6.75422 28.7256 6.47297C30.0105 5.54377 31.1193 4.39283 32 3.07422C30.8034 3.60662 29.5329 3.95433 28.2319 4.10547C29.6017 3.28437 30.6274 1.99445 31.1187 0.474844C29.8301 1.23856 28.4208 1.7773 26.9513 2.06797C25.9611 1.0159 24.652 0.31931 23.2262 0.0858896C21.8005 -0.147531 20.3376 0.0952222 19.0637 0.776617C17.7897 1.45801 16.7757 2.5401 16.1785 3.85557C15.5812 5.17105 15.4339 6.64664 15.7594 8.05422C13.15 7.92328 10.5972 7.24543 8.26664 6.06462C5.93604 4.88381 3.87959 3.2264 2.23062 1.19984C1.39253 2.64481 1.13608 4.35468 1.51337 5.98194C1.89067 7.6092 2.87342 9.03175 4.26188 9.96047C3.2195 9.92738 2.19997 9.64673 1.2875 9.14172V9.22297C1.28657 10.7394 1.8108 12.2093 2.77108 13.3828C3.73136 14.5564 5.06843 15.3612 6.555 15.6605C5.58941 15.9247 4.57598 15.9632 3.59313 15.773C4.01261 17.0771 4.82876 18.2177 5.92769 19.0356C7.02662 19.8535 8.35349 20.308 9.72313 20.3355C7.3979 22.162 4.52557 23.1527 1.56875 23.148C1.04438 23.1472 0.520532 23.115 0 23.0517C3.00381 24.9788 6.49804 26.0023 10.0669 26.0005Z" fill="#898c90"/>
</svg>
