<svg width="32" height="24" viewBox="0 0 32 24" fill="none" xmlns="http://www.w3.org/2000/svg">
<path id="Vector" d="M31.6812 5.60308C31.6812 5.60308 31.3688 3.39683 30.4062 2.42808C29.1875 1.15308 27.825 1.14683 27.2 1.07183C22.725 0.746826 16.0063 0.746826 16.0063 0.746826H15.9937C15.9937 0.746826 9.275 0.746826 4.8 1.07183C4.175 1.14683 2.8125 1.15308 1.59375 2.42808C0.63125 3.39683 0.325 5.60308 0.325 5.60308C0.325 5.60308 0 8.19683 0 10.7843V13.2093C0 15.7968 0.31875 18.3906 0.31875 18.3906C0.31875 18.3906 0.63125 20.5968 1.5875 21.5656C2.80625 22.8406 4.40625 22.7968 5.11875 22.9343C7.68125 23.1781 16 23.2531 16 23.2531C16 23.2531 22.725 23.2406 27.2 22.9218C27.825 22.8468 29.1875 22.8406 30.4062 21.5656C31.3688 20.5968 31.6812 18.3906 31.6812 18.3906C31.6812 18.3906 32 15.8031 32 13.2093V10.7843C32 8.19683 31.6812 5.60308 31.6812 5.60308ZM12.6938 16.1531V7.15933L21.3375 11.6718L12.6938 16.1531Z" fill="#fff"/>
</svg>
