<svg width="92" height="92" viewBox="0 0 92 92" fill="none" xmlns="http://www.w3.org/2000/svg">
<g id="Group">
<path id="Union" fill-rule="evenodd" clip-rule="evenodd" d="M47.0503 17.573C47.0503 16.4684 46.1549 15.573 45.0503 15.573C43.9457 15.573 43.0503 16.4684 43.0503 17.573V34.2741C43.0503 35.3786 43.9457 36.2741 45.0503 36.2741C46.1549 36.2741 47.0503 35.3786 47.0503 34.2741L47.0503 17.573ZM66.6244 27.3378C67.4054 26.5567 67.4054 25.2904 66.6244 24.5093C65.8433 23.7283 64.577 23.7283 63.796 24.5093L51.9865 36.3188C51.2055 37.0998 51.2055 38.3662 51.9865 39.1472C52.7676 39.9283 54.0339 39.9283 54.8149 39.1472L66.6244 27.3378ZM38.1136 55.848C38.8947 55.067 38.8947 53.8007 38.1136 53.0196C37.3326 52.2386 36.0663 52.2386 35.2852 53.0196L23.4758 64.8291C22.6947 65.6101 22.6947 66.8764 23.4758 67.6575C24.2568 68.4385 25.5231 68.4385 26.3042 67.6575L38.1136 55.848ZM54.8149 53.0196C54.0339 52.2386 52.7676 52.2386 51.9865 53.0196C51.2055 53.8007 51.2055 55.067 51.9865 55.848L63.796 67.6575C64.577 68.4385 65.8433 68.4385 66.6244 67.6575C67.4054 66.8764 67.4054 65.6101 66.6244 64.8291L54.8149 53.0196ZM45.0503 55.8925C46.1549 55.8925 47.0503 56.7879 47.0503 57.8925L47.0503 74.5936C47.0503 75.6981 46.1549 76.5936 45.0503 76.5936C43.9457 76.5936 43.0503 75.6981 43.0503 74.5936V57.8925C43.0503 56.7879 43.9457 55.8925 45.0503 55.8925ZM75.5612 46.0833C75.5612 47.1879 74.6658 48.0833 73.5612 48.0833H56.8601C55.7555 48.0833 54.8601 47.1879 54.8601 46.0833C54.8601 44.9787 55.7555 44.0833 56.8601 44.0833H73.5612C74.6658 44.0833 75.5612 44.9787 75.5612 46.0833ZM26.3042 24.5093C25.5231 23.7283 24.2568 23.7283 23.4758 24.5093C22.6947 25.2904 22.6947 26.5567 23.4758 27.3378L35.2852 39.1472C36.0663 39.9283 37.3326 39.9283 38.1136 39.1472C38.8947 38.3662 38.8947 37.0998 38.1136 36.3188L26.3042 24.5093ZM35.2405 46.0833C35.2405 47.1879 34.3451 48.0833 33.2405 48.0833H16.5394C15.4349 48.0833 14.5394 47.1879 14.5394 46.0833C14.5394 44.9787 15.4349 44.0833 16.5394 44.0833H33.2405C34.3451 44.0833 35.2405 44.9787 35.2405 46.0833Z" fill="#55E5C5"/>
<circle id="Ellipse 3" cx="46" cy="46" r="45" stroke="#FFFEFE" stroke-width="2"/>
</g>
</svg>
